<svg id="svg" version="1.1" xmlns="http://www.w3.org/2000/svg" xmlns:xlink="http://www.w3.org/1999/xlink" width="400" height="282.8462003628301" viewBox="0, 0, 400,282.8462003628301"><g id="svgg"><path id="path0" d="M8.945 110.944 C 8.884 111.005,8.833 112.730,8.833 114.776 L 8.833 118.496 23.458 118.541 C 31.502 118.566,55.183 118.605,76.083 118.628 C 113.155 118.669,116.141 118.710,116.306 119.177 C 116.337 119.264,116.425 119.297,116.501 119.249 C 116.725 119.111,118.491 119.713,118.381 119.890 C 118.327 119.979,118.367 119.999,118.471 119.935 C 118.702 119.792,120.000 120.161,120.000 120.370 C 120.000 120.452,120.056 120.485,120.125 120.443 C 120.318 120.324,121.674 121.102,121.537 121.253 C 121.471 121.327,121.504 121.337,121.611 121.276 C 121.924 121.097,124.300 122.771,125.809 124.234 C 127.979 126.338,129.704 128.787,130.619 131.064 C 131.651 133.634,132.185 136.496,132.594 141.651 C 132.641 142.238,132.725 142.792,132.780 142.883 C 132.836 142.973,132.951 143.618,133.035 144.315 C 133.249 146.100,133.261 146.173,133.471 146.917 C 133.634 147.491,134.017 149.037,134.194 149.833 C 134.225 149.971,134.292 150.121,134.344 150.167 C 134.395 150.212,134.574 150.775,134.742 151.417 C 134.910 152.058,135.112 152.666,135.191 152.768 C 135.462 153.116,135.996 154.872,135.888 155.061 C 135.828 155.165,135.836 155.200,135.905 155.138 C 135.973 155.077,136.666 156.310,137.445 157.880 C 139.013 161.043,140.323 163.121,142.688 166.197 C 144.540 168.605,149.200 172.967,151.417 174.365 C 151.783 174.596,152.608 175.121,153.250 175.531 C 154.897 176.583,158.058 178.167,158.510 178.167 C 158.607 178.167,158.633 178.253,158.567 178.359 C 158.498 178.471,158.521 178.507,158.623 178.443 C 158.862 178.296,160.874 179.068,160.712 179.245 C 160.641 179.323,160.681 179.331,160.800 179.262 C 160.919 179.193,161.669 179.328,162.466 179.561 C 166.323 180.688,154.396 180.579,278.875 180.626 L 391.000 180.668 391.000 176.834 L 391.000 173.000 280.501 173.000 C 182.526 173.001,169.809 172.972,168.293 172.748 C 166.136 172.428,164.316 171.996,164.420 171.827 C 164.464 171.756,164.362 171.734,164.192 171.778 C 164.023 171.823,163.591 171.735,163.234 171.584 C 162.876 171.432,162.246 171.193,161.833 171.051 C 160.789 170.693,159.652 170.070,159.791 169.932 C 159.854 169.868,159.785 169.862,159.636 169.919 C 159.046 170.146,155.427 167.867,152.730 165.570 C 149.555 162.867,144.814 156.872,145.269 156.136 C 145.338 156.024,145.310 155.995,145.198 156.064 C 144.963 156.209,144.108 154.569,144.271 154.285 C 144.335 154.174,144.325 154.139,144.250 154.208 C 144.066 154.374,143.462 153.364,143.605 153.131 C 143.673 153.021,143.641 152.996,143.526 153.067 C 143.347 153.178,143.268 152.947,143.288 152.377 C 143.292 152.263,143.240 152.204,143.173 152.246 C 143.105 152.288,142.950 152.006,142.828 151.619 C 142.706 151.233,142.539 150.826,142.456 150.716 C 142.373 150.605,142.353 150.436,142.412 150.341 C 142.471 150.245,142.452 150.167,142.369 150.167 C 142.020 150.167,140.587 144.956,140.256 142.485 C 140.200 142.064,140.127 141.539,140.093 141.318 C 140.059 141.097,139.947 140.167,139.843 139.250 C 139.739 138.333,139.613 137.283,139.564 136.917 C 139.514 136.550,139.436 135.837,139.391 135.333 C 138.812 128.839,134.682 121.528,128.988 116.917 C 127.554 115.755,124.806 114.003,124.039 113.762 C 123.832 113.696,123.711 113.563,123.771 113.466 C 123.834 113.365,123.782 113.325,123.648 113.372 C 123.521 113.417,123.154 113.327,122.833 113.171 C 122.513 113.016,121.485 112.639,120.549 112.333 C 119.614 112.027,118.875 111.733,118.908 111.680 C 118.941 111.627,118.732 111.578,118.442 111.572 C 118.153 111.566,117.429 111.464,116.833 111.346 C 116.237 111.228,115.337 111.071,114.833 110.997 C 113.735 110.836,9.105 110.783,8.945 110.944 M261.542 190.792 C 285.260 190.815,324.073 190.815,347.792 190.792 C 371.510 190.768,352.104 190.749,304.667 190.749 C 257.229 190.749,237.823 190.768,261.542 190.792 " stroke="none" fill="#6bbc8c" fill-rule="evenodd"></path><path id="path1" d="M8.833 87.917 L 8.833 91.833 62.292 91.847 C 91.694 91.855,115.938 91.894,116.167 91.935 C 116.396 91.976,117.022 92.054,117.559 92.109 C 118.202 92.175,118.457 92.259,118.309 92.354 C 118.166 92.446,118.267 92.466,118.583 92.408 C 118.858 92.358,119.721 92.439,120.500 92.588 C 121.279 92.737,122.273 92.923,122.709 93.003 C 123.717 93.186,125.733 93.857,125.806 94.034 C 125.837 94.108,125.930 94.126,126.014 94.075 C 126.098 94.023,126.260 94.039,126.375 94.110 C 126.490 94.182,126.666 94.253,126.767 94.269 C 127.074 94.315,130.411 95.563,130.500 95.665 C 130.546 95.717,130.921 95.902,131.333 96.076 C 131.746 96.251,132.177 96.507,132.292 96.645 C 132.406 96.784,132.500 96.838,132.500 96.767 C 132.500 96.603,134.708 97.807,136.250 98.811 C 142.678 102.999,147.289 107.799,151.642 114.833 C 153.049 117.109,155.999 123.945,155.702 124.243 C 155.642 124.302,155.686 124.409,155.799 124.479 C 155.912 124.548,156.143 125.105,156.312 125.715 C 156.481 126.325,156.555 126.784,156.476 126.735 C 156.398 126.687,156.333 126.726,156.333 126.823 C 156.333 126.921,156.399 127.000,156.480 127.000 C 157.047 127.000,158.361 135.005,158.070 136.686 C 157.992 137.135,158.011 137.199,158.166 137.000 C 158.320 136.802,158.344 136.894,158.281 137.443 C 158.238 137.824,158.258 138.199,158.327 138.276 C 158.395 138.353,158.546 139.092,158.662 139.917 C 159.056 142.702,160.406 145.745,162.267 148.037 C 163.400 149.432,163.643 149.685,164.396 150.251 C 164.626 150.423,164.775 150.627,164.728 150.703 C 164.680 150.779,164.704 150.825,164.779 150.804 C 164.855 150.783,165.461 151.123,166.127 151.559 C 166.793 151.995,167.580 152.434,167.877 152.534 C 168.174 152.633,168.492 152.771,168.583 152.839 C 169.116 153.235,172.211 153.956,173.667 154.024 C 174.262 154.051,223.406 154.057,282.875 154.037 L 391.000 154.000 391.000 150.001 L 391.000 146.001 281.958 145.959 L 172.917 145.917 171.635 145.393 C 169.335 144.454,167.786 143.037,166.783 140.953 C 165.780 138.866,165.682 138.362,165.167 132.583 C 164.801 128.479,164.305 126.084,162.872 121.500 C 162.542 120.446,162.282 119.444,162.294 119.273 C 162.306 119.102,162.270 119.008,162.215 119.063 C 162.083 119.195,161.322 117.320,161.434 117.139 C 161.481 117.063,161.436 117.000,161.333 117.000 C 161.231 117.000,161.193 116.925,161.250 116.833 C 161.307 116.742,161.289 116.667,161.212 116.667 C 161.134 116.667,160.886 116.239,160.660 115.716 C 160.435 115.194,160.009 114.255,159.714 113.630 C 159.419 113.006,159.181 112.448,159.186 112.391 C 159.191 112.334,159.124 112.241,159.037 112.185 C 158.949 112.129,158.715 111.783,158.515 111.417 C 155.553 105.983,150.718 100.138,145.833 96.085 C 144.962 95.362,144.271 94.704,144.296 94.623 C 144.321 94.542,144.276 94.516,144.196 94.565 C 144.115 94.615,143.795 94.464,143.483 94.230 C 142.393 93.410,139.133 91.324,137.864 90.633 C 137.160 90.249,136.528 89.856,136.461 89.760 C 136.394 89.663,136.337 89.638,136.336 89.706 C 136.333 89.852,134.295 88.845,134.148 88.625 C 134.092 88.540,133.979 88.478,133.898 88.485 C 133.817 88.492,132.700 88.092,131.417 87.595 C 128.664 86.530,126.319 85.776,124.878 85.494 C 124.307 85.383,123.869 85.244,123.904 85.187 C 123.939 85.130,123.732 85.078,123.442 85.071 C 123.153 85.065,122.467 84.965,121.917 84.850 C 121.367 84.735,120.335 84.559,119.625 84.457 C 118.915 84.356,118.333 84.212,118.333 84.137 C 118.333 84.062,93.696 84.000,63.583 84.000 L 8.833 84.000 8.833 87.917 M56.542 93.125 C 66.969 93.149,84.031 93.149,94.458 93.125 C 104.885 93.101,96.354 93.082,75.500 93.082 C 54.646 93.082,46.115 93.101,56.542 93.125 " stroke="none" fill="#f35354" fill-rule="evenodd"></path><path id="path2" d="M9.042 93.118 C 8.883 93.176,8.833 94.110,8.833 97.011 L 8.833 100.828 62.708 100.883 C 111.408 100.932,116.711 100.963,117.917 101.205 C 120.138 101.652,120.990 101.881,120.910 102.011 C 120.867 102.080,120.968 102.100,121.133 102.057 C 121.298 102.014,121.767 102.095,122.175 102.237 C 122.583 102.379,123.048 102.496,123.208 102.498 C 123.369 102.499,123.500 102.556,123.500 102.625 C 123.501 102.694,123.734 102.766,124.019 102.786 C 124.303 102.806,124.622 102.890,124.727 102.972 C 124.831 103.054,125.123 103.170,125.375 103.230 C 125.627 103.290,125.833 103.418,125.833 103.513 C 125.833 103.608,125.901 103.644,125.984 103.593 C 126.067 103.542,127.043 103.950,128.153 104.500 C 129.264 105.050,130.214 105.500,130.264 105.500 C 130.610 105.500,134.559 108.283,136.178 109.667 C 142.147 114.770,147.221 123.144,148.554 130.092 C 148.589 130.271,148.661 130.529,148.715 130.667 C 148.960 131.291,149.748 138.548,149.609 138.909 C 149.555 139.051,149.576 139.167,149.656 139.167 C 149.736 139.167,149.850 139.560,149.909 140.042 C 150.076 141.402,150.669 144.196,150.910 144.750 C 151.029 145.025,151.260 145.662,151.422 146.167 C 151.585 146.671,151.812 147.233,151.928 147.417 C 152.043 147.600,152.325 148.200,152.554 148.750 C 154.125 152.529,157.973 157.059,161.697 159.515 C 163.552 160.739,163.931 160.950,164.941 161.328 C 165.476 161.528,165.989 161.750,166.081 161.822 C 166.344 162.026,168.767 162.613,170.333 162.853 C 171.208 162.987,173.345 163.072,175.917 163.073 C 178.208 163.075,227.540 163.061,285.542 163.041 L 391.000 163.006 391.000 159.170 L 391.000 155.333 282.287 155.333 C 207.409 155.333,173.141 155.279,172.180 155.158 C 166.997 154.509,161.647 150.685,159.475 146.080 C 159.259 145.623,159.039 145.212,158.985 145.167 C 158.930 145.121,158.753 144.708,158.589 144.250 C 158.426 143.792,158.193 143.188,158.071 142.909 C 157.697 142.050,157.273 139.822,157.074 137.667 C 156.982 136.665,156.746 134.778,156.323 131.667 C 156.018 129.420,155.596 127.516,154.831 124.936 C 154.592 124.131,153.779 122.090,153.145 120.704 C 152.882 120.129,152.667 119.615,152.667 119.562 C 152.667 118.638,147.877 111.257,145.560 108.611 C 144.931 107.893,144.296 107.089,144.148 106.824 C 144.001 106.559,143.838 106.384,143.788 106.435 C 143.737 106.485,143.108 105.950,142.389 105.245 C 141.152 104.031,140.098 103.143,138.353 101.844 C 137.930 101.529,137.482 101.171,137.359 101.048 C 137.236 100.926,136.921 100.715,136.659 100.580 C 136.150 100.316,134.638 99.330,134.500 99.171 C 134.330 98.976,129.191 96.494,128.124 96.093 C 124.337 94.667,121.588 93.979,117.167 93.351 C 115.930 93.176,9.508 92.946,9.042 93.118 " stroke="none" fill="#fcb353" fill-rule="evenodd"></path><path id="path3" d="M8.833 105.833 L 8.833 109.667 61.213 109.667 C 110.553 109.667,114.695 109.698,116.833 110.091 C 117.063 110.133,117.530 110.214,117.872 110.271 C 118.214 110.328,118.458 110.434,118.413 110.505 C 118.369 110.577,118.487 110.595,118.675 110.546 C 119.095 110.436,121.865 111.314,121.739 111.517 C 121.690 111.597,121.761 111.620,121.897 111.568 C 122.214 111.446,125.339 112.856,125.211 113.063 C 125.158 113.148,125.204 113.163,125.312 113.096 C 125.539 112.956,127.048 113.896,126.875 114.070 C 126.812 114.133,126.875 114.140,127.015 114.086 C 127.163 114.030,127.582 114.222,128.010 114.542 C 128.417 114.846,128.938 115.216,129.167 115.365 C 132.008 117.205,138.506 125.380,137.903 126.355 C 137.827 126.478,137.854 126.507,137.974 126.433 C 138.159 126.318,138.246 126.625,138.175 127.142 C 138.158 127.266,138.219 127.321,138.309 127.265 C 138.517 127.136,139.338 129.253,139.887 131.333 C 140.287 132.847,140.523 134.301,140.754 136.667 C 140.812 137.262,140.886 137.938,140.919 138.167 C 140.952 138.396,141.029 139.258,141.092 140.083 C 141.154 140.908,141.234 141.633,141.270 141.694 C 141.452 142.003,141.836 144.569,141.747 144.884 C 141.666 145.173,141.682 145.197,141.820 145.000 C 141.966 144.791,141.995 144.808,141.997 145.102 C 141.999 145.295,142.188 146.045,142.418 146.768 C 142.648 147.492,142.799 148.181,142.753 148.300 C 142.708 148.420,142.735 148.477,142.815 148.428 C 142.894 148.379,143.005 148.569,143.062 148.849 C 143.118 149.130,143.284 149.635,143.432 149.972 C 143.580 150.308,143.759 150.733,143.830 150.917 C 146.756 158.477,152.947 165.325,160.209 169.034 C 160.828 169.351,161.278 169.672,161.209 169.748 C 161.140 169.824,161.169 169.838,161.274 169.778 C 161.445 169.680,162.363 169.929,163.250 170.314 C 164.096 170.681,164.499 170.810,165.383 170.993 C 165.906 171.102,166.333 171.253,166.333 171.330 C 166.333 171.407,166.450 171.453,166.594 171.432 C 166.737 171.411,167.318 171.510,167.885 171.652 C 168.809 171.882,180.466 171.914,279.958 171.956 L 391.000 172.002 391.000 168.168 L 391.000 164.333 304.542 164.333 C 256.990 164.332,207.358 164.313,194.250 164.291 L 170.417 164.249 168.750 163.870 C 167.833 163.662,167.058 163.418,167.027 163.328 C 166.997 163.238,166.914 163.200,166.844 163.243 C 166.369 163.537,160.167 160.502,160.167 159.976 C 160.167 159.897,160.088 159.833,159.991 159.833 C 158.963 159.833,153.915 154.226,152.639 151.667 C 152.433 151.254,152.141 150.729,151.990 150.500 C 151.322 149.489,150.147 146.485,149.579 144.333 C 149.543 144.196,149.398 143.662,149.257 143.148 C 148.927 141.939,148.763 140.859,148.248 136.500 C 147.873 133.323,147.518 130.926,147.272 129.917 C 147.000 128.800,146.287 126.560,146.067 126.136 C 145.925 125.861,145.851 125.527,145.903 125.393 C 145.954 125.259,145.933 125.188,145.856 125.236 C 145.778 125.284,145.508 124.794,145.254 124.149 C 145.001 123.503,144.514 122.474,144.172 121.862 C 142.880 119.551,142.294 118.567,141.911 118.062 C 141.693 117.776,141.530 117.513,141.549 117.479 C 141.568 117.445,141.555 117.432,141.521 117.451 C 141.487 117.470,140.932 116.795,140.287 115.951 C 139.642 115.108,138.733 114.015,138.266 113.523 C 137.799 113.031,137.435 112.562,137.458 112.481 C 137.481 112.400,137.436 112.352,137.359 112.375 C 137.281 112.398,136.772 112.004,136.228 111.500 C 135.684 110.996,134.698 110.172,134.036 109.668 C 133.375 109.165,132.833 108.696,132.833 108.627 C 132.833 108.557,132.756 108.500,132.661 108.500 C 132.566 108.500,131.797 108.061,130.952 107.523 C 129.320 106.485,127.026 105.325,125.042 104.535 C 124.378 104.271,123.866 104.023,123.904 103.985 C 123.941 103.948,123.810 103.905,123.611 103.891 C 123.413 103.877,122.748 103.715,122.134 103.529 C 120.443 103.019,117.124 102.372,115.191 102.175 C 114.022 102.057,96.576 102.000,61.149 102.000 L 8.833 102.000 8.833 105.833 " stroke="none" fill="#fcf474" fill-rule="evenodd"></path><path id="path4" d="M8.833 123.749 L 8.833 127.667 61.283 127.667 L 113.733 127.667 115.158 128.101 C 120.531 129.737,123.626 134.322,123.724 140.790 C 123.738 141.729,123.796 142.498,123.852 142.499 C 123.908 142.499,124.006 143.142,124.070 143.926 C 124.334 147.184,125.984 154.110,127.004 156.250 C 127.092 156.433,127.357 157.105,127.593 157.743 C 128.578 160.399,130.428 164.042,132.120 166.657 C 132.628 167.441,133.234 168.383,133.466 168.750 C 133.699 169.117,134.162 169.754,134.496 170.167 C 134.830 170.579,135.675 171.629,136.375 172.500 C 138.449 175.082,141.232 177.842,143.738 179.802 C 147.109 182.440,149.062 183.688,152.333 185.299 C 153.571 185.909,154.608 186.466,154.639 186.538 C 154.670 186.610,154.759 186.629,154.837 186.581 C 154.915 186.533,155.302 186.641,155.697 186.820 C 156.093 187.000,157.336 187.438,158.460 187.794 C 159.584 188.150,160.449 188.496,160.382 188.563 C 160.315 188.629,160.372 188.641,160.509 188.589 C 160.647 188.536,161.469 188.650,162.338 188.843 C 166.228 189.704,158.976 189.654,279.125 189.660 L 391.000 189.667 391.000 185.751 L 391.000 181.836 278.958 181.775 C 175.477 181.719,165.368 181.682,165.573 181.351 C 165.611 181.288,165.376 181.268,165.049 181.306 C 164.668 181.350,164.493 181.313,164.561 181.203 C 164.626 181.098,164.538 181.065,164.336 181.118 C 164.154 181.165,163.873 181.147,163.711 181.078 C 163.549 181.008,162.629 180.746,161.667 180.495 C 159.409 179.907,156.640 178.844,156.779 178.620 C 156.838 178.524,156.804 178.499,156.700 178.563 C 155.868 179.077,148.304 173.982,144.989 170.674 C 142.712 168.401,137.833 162.085,137.833 161.408 C 137.833 161.343,137.451 160.622,136.984 159.806 C 136.445 158.864,136.175 158.220,136.243 158.041 C 136.302 157.887,136.297 157.814,136.232 157.879 C 135.864 158.247,132.875 150.591,132.782 149.042 C 132.765 148.745,132.708 148.501,132.656 148.501 C 132.576 148.500,132.258 147.127,132.058 145.917 C 132.027 145.733,131.954 145.321,131.896 145.000 C 131.838 144.679,131.781 144.248,131.770 144.042 C 131.759 143.835,131.706 143.667,131.652 143.667 C 131.598 143.667,131.463 142.673,131.352 141.458 C 131.241 140.244,131.104 138.800,131.047 138.250 C 130.991 137.700,130.929 137.100,130.910 136.917 C 130.891 136.733,130.832 136.471,130.778 136.333 C 130.725 136.196,130.599 135.596,130.499 135.000 C 130.172 133.046,129.470 131.218,128.412 129.564 C 128.094 129.067,127.833 128.618,127.833 128.567 C 127.833 128.094,124.259 124.397,122.991 123.557 C 122.632 123.320,122.379 123.060,122.429 122.980 C 122.479 122.899,122.378 122.833,122.205 122.833 C 122.033 122.833,121.274 122.501,120.520 122.094 C 119.765 121.687,118.534 121.153,117.782 120.906 C 117.031 120.659,116.268 120.335,116.086 120.187 C 115.776 119.933,115.770 119.935,115.985 120.212 C 116.179 120.463,116.179 120.495,115.982 120.425 C 115.700 120.325,115.049 120.198,113.833 120.004 C 113.324 119.923,89.776 119.852,60.875 119.845 L 8.833 119.831 8.833 123.749 " stroke="none" fill="#638cec" fill-rule="evenodd"></path><path id="path5" d="M61.039 128.958 L 8.828 129.001 8.872 133.125 L 8.917 137.250 60.963 137.291 C 108.459 137.328,113.045 137.355,113.418 137.600 C 113.945 137.945,114.559 138.936,114.403 139.189 C 114.331 139.306,114.354 139.340,114.459 139.275 C 114.672 139.144,114.803 139.864,114.924 141.833 C 114.972 142.612,115.127 144.213,115.268 145.389 C 115.409 146.566,115.484 147.635,115.434 147.764 C 115.384 147.894,115.403 148.000,115.475 148.000 C 115.664 148.000,116.060 150.601,115.909 150.846 C 115.832 150.970,115.851 151.009,115.956 150.944 C 116.062 150.878,116.175 151.144,116.247 151.627 C 116.312 152.061,116.420 152.492,116.488 152.583 C 116.667 152.824,117.022 154.568,116.950 154.847 C 116.916 154.977,116.923 155.016,116.966 154.934 C 117.079 154.718,118.020 157.708,117.920 157.967 C 117.875 158.086,117.896 158.148,117.967 158.104 C 118.124 158.007,118.925 160.477,118.853 160.833 C 118.825 160.971,118.858 161.028,118.927 160.960 C 118.996 160.892,119.219 161.230,119.422 161.710 C 119.626 162.190,120.043 163.183,120.350 163.917 C 123.339 171.063,129.252 179.286,135.417 184.872 C 138.141 187.340,144.554 191.992,145.247 192.003 C 145.340 192.004,145.304 192.086,145.167 192.185 C 144.956 192.336,144.963 192.350,145.210 192.270 C 145.388 192.213,146.369 192.624,147.710 193.318 C 148.924 193.946,150.854 194.823,152.000 195.268 C 153.146 195.713,154.121 196.116,154.167 196.164 C 154.212 196.211,154.325 196.250,154.417 196.251 C 154.747 196.253,156.667 196.899,156.667 197.008 C 156.667 197.070,156.865 197.082,157.108 197.036 C 157.351 196.990,157.509 197.019,157.458 197.101 C 157.408 197.183,157.652 197.266,158.000 197.287 C 158.348 197.307,158.959 197.437,159.358 197.576 C 159.757 197.715,160.257 197.830,160.468 197.831 C 160.716 197.832,160.811 197.902,160.734 198.026 C 160.661 198.143,160.688 198.173,160.803 198.102 C 161.046 197.952,165.000 198.509,165.000 198.693 C 165.000 198.770,215.850 198.833,278.000 198.833 L 391.000 198.833 391.000 194.917 L 391.000 191.000 317.361 191.000 C 228.000 191.000,166.641 190.844,166.781 190.616 C 166.843 190.516,166.665 190.493,166.316 190.556 C 165.659 190.675,161.453 189.946,161.834 189.779 C 161.971 189.719,161.912 189.712,161.703 189.764 C 161.254 189.876,158.833 189.338,158.833 189.126 C 158.833 189.046,158.770 189.019,158.693 189.067 C 158.305 189.307,151.587 186.597,151.783 186.280 C 151.839 186.189,151.801 186.167,151.698 186.231 C 151.505 186.350,151.038 186.148,149.167 185.139 C 148.054 184.539,146.149 183.358,146.000 183.177 C 145.954 183.121,145.692 182.936,145.417 182.766 C 142.643 181.047,135.937 174.840,136.271 174.300 C 136.336 174.194,136.309 174.162,136.209 174.224 C 135.899 174.415,131.325 168.233,130.310 166.250 C 130.169 165.975,129.649 165.000,129.154 164.083 C 128.119 162.168,126.137 157.657,125.968 156.833 C 125.940 156.696,125.871 156.546,125.814 156.500 C 125.692 156.400,124.857 153.571,124.069 150.583 C 123.244 147.457,123.034 146.201,122.746 142.667 C 122.238 136.424,121.495 134.304,118.981 131.922 C 117.646 130.657,115.329 129.411,113.979 129.231 C 113.536 129.173,113.214 129.059,113.263 128.979 C 113.313 128.899,113.330 128.852,113.302 128.875 C 113.273 128.898,89.755 128.935,61.039 128.958 " stroke="none" fill="#ac4cc4" fill-rule="evenodd"></path></g></svg>